<svg id="Capa_1" data-name="Capa 1" xmlns="http://www.w3.org/2000/svg" viewBox="0 0 583.07 580.48"><defs><style>.cls-1{fill:#ea7c69;}.cls-2{fill:#252836;}</style></defs><path class="cls-1" d="M279.1,19.6c-1.8,3.8-2.1,6.3-2.1,16.8,0,17.2,1.7,37.4,3.6,42.4,1.2,3.4,2.1,4.3,3.9,4.3,3.1,0,4.1-1.5,5.4-8,1.8-9.2,3.3-45,2.1-50.4-1.5-6.7-3.8-9.5-7.6-9.6C281.6,15.1,281,15.7,279.1,19.6Z" transform="translate(-16.69 -15.1)"/><path class="cls-1" d="M201.2,34.3c-3.8,3.8.7,15,11.5,28.8.6.8,4,5.1,7.4,9.5,9.5,12.1,13.9,16.5,19.4,19.1,6.6,3.1,9.8,3.1,12-.2,2-3.1,1.5-7.5-1.7-13.7-2.7-5.3-15.6-20-29.6-34-9.6-9.5-11.2-10.7-14.3-10.7C204,33.1,201.9,33.6,201.2,34.3Z" transform="translate(-16.69 -15.1)"/><path class="cls-1" d="M349.9,49c-21.6,22.1-29.8,35-27,42.4.9,2.3,1.6,2.7,4.7,2.7a18.38,18.38,0,0,0,7.3-2.1c5.3-3.2,16.4-14.3,23-22.9,15.2-19.9,19.3-27.8,17.2-33.3-.9-2.4-1.6-2.7-5.3-2.7C365.6,33.1,365.3,33.3,349.9,49Z" transform="translate(-16.69 -15.1)"/><path class="cls-1" d="M310.8,44.8c-4,4.6-8.8,19.7-8.8,28,0,6.3,1.9,13.9,4.1,16.4,1.9,2.2,2.2,2.2,4.7.8,3-1.7,7.7-10.4,9.8-18.2s1.9-24.1-.3-26.7S312.9,42.5,310.8,44.8Z" transform="translate(-16.69 -15.1)"/><path class="cls-1" d="M249.6,46.3c-2.3,3.2-2,8.2,1,17,4.1,12.5,14.3,26.8,19.1,26.8,6.7,0,5.6-14.1-2.5-30.9C260.9,46.2,253.5,40.7,249.6,46.3Z" transform="translate(-16.69 -15.1)"/><path class="cls-1" d="M274.9,116.5c-.3.3-6.5,1-13.9,1.6-20.7,1.7-34.1,4.6-59.5,12.7-26,8.2-44.3,19-61.6,36.5-9.6,9.7-16,18-20.7,27-5.9,11.3-7.2,16.3-7.2,27.7,0,9.4.1,10.1,2.3,11.3,1.7,1,19.2,1.4,74.7,1.8l72.5.6-72.5.2c-55.9.2-73.1.5-75,1.5s-2.6,2.1-2.8,5.7c-.5,7,.8,8,11.3,8.7l8.9.6-3.9,1.4c-5.5,1.9-14.1,10.6-16,16.2-2.9,8.6-1.7,16.6,3.9,24.9,3.5,5.1,7.4,7.6,14.4,9.1,6.3,1.3,289.7,1.5,305.2.2,10.6-.9,15.5-2.8,20.6-8.3,5.3-5.6,6.8-9.5,6.8-17.3,0-10-4.1-17.1-13.2-22.7-3.3-2-5.5-2.3-25.1-3-11.9-.5-22-1-22.6-1.2s11.9-.5,27.6-.5c28.5-.1,28.6-.1,30.7-2.4a8.6,8.6,0,0,0,2.2-5.9c0-5.8-1.4-6-36.5-6.8-26-.5-28-.7-12.5-.8,24.6-.3,45.9-1.9,48.8-3.8,2.1-1.4,2.2-2,2.2-16.2,0-11.2-.4-16.1-1.7-19.8-.9-2.7-1.9-5.1-2.3-5.4a58.83,58.83,0,0,1-4-6.5c-5.9-10.4-26.9-30.2-38.4-36.1a105.34,105.34,0,0,1-9.9-5.6c-2.9-2.1-34.2-13.3-41.2-14.8-2.2-.4-8-1.9-13-3.3C339.9,120.2,277.1,114.3,274.9,116.5ZM379,251.8c0,.7-76,.7-180,0-21.7-.1,9.9-.3,70.3-.5S379,251.4,379,251.8Z" transform="translate(-16.69 -15.1)"/><path class="cls-1" d="M479,132.6c0,.8-.9,1.5-2,1.5a1.8,1.8,0,0,0-2,2c0,1.1-.4,2-1,2-1.7,0-1.2,11,.5,11.6,2.3.9,1.8,3.3-1,4.4-2.2.8-2.5,1.6-2.5,5.5,0,2.5.5,4.5,1,4.5s1,.7,1,1.5c0,3.1,3.3,2.8,9.6-.6,5.7-3,6.6-3.3,9.4-2.2,4.5,1.7,6,.8,6-3.8,0-3.4.5-4.2,4.5-7.1,3.8-2.8,4.4-3.8,4.5-6.9,0-4.2-1.4-5.8-5-5.6a30.79,30.79,0,0,1-6.3-.6c-3.3-.7-3.8-.5-4.7,1.5l-.9,2.3-.1-2.5c-.1-3.1-1.6-5-5.9-7.3C480.1,130.7,479,130.7,479,132.6Z" transform="translate(-16.69 -15.1)"/><path class="cls-1" d="M528.1,167.1c-9.5,13.4-10.1,14.8-10.1,22.2,0,8,1.7,10.8,6.6,10.8,3.6,0,8.4-2.4,8.4-4.3a4.79,4.79,0,0,1,1.4-2.6c1.7-2,9.6-26.7,9.6-30.2a6.13,6.13,0,0,0-6.3-5.9C535.6,157.1,533.9,158.8,528.1,167.1Z" transform="translate(-16.69 -15.1)"/><path class="cls-1" d="M20.3,197.3c-6.2,6.7-4.2,21.1,4.3,31.5a29,29,0,0,0,6.4,5.8c3.7,1.9,11.3,1.9,14.9.1,3-1.6,6.1-5.6,6.1-7.9,0-1.6-3.5-4.9-7.3-6.9L42,218.5l8-3.9c4.4-2.1,8-4.4,8-4.9,0-2.5-5.4-11.6-6.9-11.6-.9,0-4.9,1.6-9,3.5s-7.4,3.5-7.5,3.5-.1-1,.1-2.3-.4-3.3-1.7-5C30.1,194.2,23.4,193.9,20.3,197.3Z" transform="translate(-16.69 -15.1)"/><path class="cls-1" d="M496,198.9c0,1,1.3,5.7,2.9,10.5l2.9,8.6-2.8.6c-3.8.8-4.2,1.6-6.8,11-1.8,6.8-2.2,11.9-2.8,33.5l-.6,25.5-4.4,13.1c-2.4,7.2-4.4,13.8-4.4,14.7,0,2.6,2.7,2,9-1.8,12.7-7.7,26.7-27.3,31.4-43.9,2.7-9.4,5.1-30,4.2-35a16,16,0,0,0-2.9-6.2,8.72,8.72,0,0,1-1.9-5c.4-2.7-4-6.4-7.7-6.4-2.5,0-2.7-.4-4.3-8.1-2.2-10.4-3.8-12.9-8.3-12.9C496.8,197.1,496,197.5,496,198.9Z" transform="translate(-16.69 -15.1)"/><path class="cls-1" d="M71.4,209.6c-.7,1.8.4,8.5,1.4,8.5.4,0,2.7,2.7,5.1,6,5.4,7.3,11.1,12.7,14.6,13.6s6.5-1.9,6.5-6.2c0-2.8-1.4-4.7-10-13.3-8.9-9-10.4-10.1-13.5-10.1C73.2,208.1,71.7,208.7,71.4,209.6Z" transform="translate(-16.69 -15.1)"/><path class="cls-1" d="M555.8,211.6c-13.1,3.3-20.8,14.6-20.8,30.6,0,5.8,1.3,8.9,3.9,8.9,3.9,0,11.3-3.4,15.6-7.2,9.1-8,12.6-17.1,10.5-27.2C563.7,210.5,562.6,209.8,555.8,211.6Z" transform="translate(-16.69 -15.1)"/><path class="cls-1" d="M68,261.3c0,10.3,2.1,15.8,7.9,21.1,4.8,4.3,14.1,7.9,19.5,7.5l4.1-.3.3-6.7c.4-8.3-2-14-8.3-20.3-5.5-5.6-11.4-8.5-18.1-9.2l-5.4-.6Z" transform="translate(-16.69 -15.1)"/><path class="cls-1" d="M546.3,277.5c-2.7,2.3-2.8,2.9-2.8,10.8,0,7,.4,9.1,2.8,13.9,5,10.3,9.8,13.9,18.7,13.9,5.5,0,6.5-.3,9.1-2.9,4.1-4.2,4-8.9-.2-11.4a14.35,14.35,0,0,0-4.5-1.7c-3,0-1-1.7,6.6-5.4,4.7-2.2,8-4.4,8-5.3,0-2.4-5.4-11.3-6.8-11.3-.7,0-3.4,1.1-6,2.4s-6.3,3-8.2,3.8l-3.6,1.5.4-3.2c.6-5.4-1.2-7.5-6.3-7.5A10.14,10.14,0,0,0,546.3,277.5Z" transform="translate(-16.69 -15.1)"/><path class="cls-1" d="M42.4,289.6a2.74,2.74,0,0,1-2.4,1.5c-1.3,0-2,1.1-2.5,3.6-.7,3.8.2,11.4,1.3,11.4a5.62,5.62,0,0,1,2.1.9c1.2.8,1,1.6-1.2,4.5-1.5,1.9-2.7,4-2.7,4.6,0,2.3,4.6,9,6.2,9,.9,0,3.7-1.6,6.3-3.5,6.4-5,9-5.2,14.4-1.6,3.3,2.2,4.8,2.7,5.8,1.9s.6-1.9-2.1-4.9c-4-4.8-3.8-7.1,1.1-12.8,2.9-3.4,3.3-4.6,2.8-7.1-.8-3.7-2.6-4.6-9-4.4-7.5.3-7.5.3-7.5,2.1,0,1.2-.6.7-1.6-1.2-2-4-2.3-4.1-6.7-4.9C43.8,288.2,42.8,288.4,42.4,289.6Z" transform="translate(-16.69 -15.1)"/><path class="cls-1" d="M113.5,308.8c-3.6,3.5-3.7,3.7-3.3,9.9.5,8.2,2.8,11.4,9.4,13.2,5,1.4,7.1,2,15.9,5.2a80.77,80.77,0,0,0,12,3,50.94,50.94,0,0,1,8.8,2.2c3.8,1.9,30.6-2.2,34.3-5.3.7-.6,5.1-1.3,9.9-1.5,7-.4,10.3-.1,18.5,2a101.59,101.59,0,0,0,11.9,2.6c1.2,0,2.1.4,2.1.9,0,1.4,9.1,2.4,10.3,1.2.6-.6,5-1.1,10-1.1,6.5,0,9.2-.4,10.3-1.5a6.67,6.67,0,0,1,3.8-1.5,36.65,36.65,0,0,0,8.1-2,35.83,35.83,0,0,1,23.1,0c14.6,5.1,32.7,6.5,44.1,3.4,26.5-7.1,24.9-7.1,48.3-.5a68.32,68.32,0,0,0,35.6-.4c33.9-9.5,35.4-10.4,35.4-20,0-4.7-.4-5.7-3.6-8.9-5.7-5.7-8.6-5.8-24.4-.5-2.5.8-5.4,1.6-15.8,4.5-8.2,2.2-11.7,1.9-24.2-2-10.8-3.4-12.3-3.6-25.1-3.6-11.1,0-14.7.4-19.5,2-17.4,6-25.4,6.4-38.4,1.9-8.6-3-10.8-3.3-23.6-3.7-13.9-.4-14.1-.4-25.8,3.3-14,4.4-17,4.4-32.1-.6-9.5-3.2-10.8-3.4-24.5-3.4-12.5,0-15.4.3-20.7,2.2-9.1,3.3-21.1,5.6-25.2,4.8-2-.4-7.6-2-12.6-3.6s-11-3.6-13.5-4.4a35.66,35.66,0,0,0-10.1-1.5C117.8,305.1,117,305.4,113.5,308.8Z" transform="translate(-16.69 -15.1)"/><path class="cls-1" d="M508,325.5a40.31,40.31,0,0,0-27.6,25.2c-1.5,3.9-1.9,7.5-1.9,17.9,0,14.8,1.1,18.1,8.5,25.5,5.4,5.4,8.1,5.9,13,2.5,4-2.8,4.8-4.3,3.1-6.1a39,39,0,0,1-3.5-5.8l-2.7-5,2.5,2.3c3,2.8,6.1,2.1,7.5-1.7.5-1.5,1-2.1,1-1.5.1,1.6,3.2,5.3,4.4,5.3.5,0,3-2.4,5.5-5.3s8-8.7,12.1-12.9c7.2-7.5,8.6-10.8,4.6-10.8-1.3,0-1.2-.4.5-2.2,2.6-2.9,2.5-3.8-1.1-6.7-2.9-2.2-3.1-2.3-4.9-.6-2.6,2.4-2.5,5,.2,6.9,2.1,1.5,2,1.6-3.3,1.6h-5.5l.4-3.5c.4-3,.1-3.5-2.4-4.1-5.2-1.3-8.2,3-4.6,6.9l2,2.2-3.4,2.2c-2.8,1.8-3.5,1.9-4.5.7-1.6-1.9-4.3-1.8-6.2.4-2.2,2.4-2.1,3.5.3,5.7,1.9,1.7,2.1,1.7,4.1-.1,2.2-1.9,2.2-1.9.9.5-.7,1.4-1,4.4-.8,7.3.5,4.7.5,4.8-1.4,3.1-1.6-1.4-2.4-1.5-5-.5-1.8.6-3.4.9-3.7.6s-.6-3.8-.5-7.7c0-8.8,2.3-13.7,8.9-19.5,5.7-5,13-7.6,19.2-6.9,2.4.2,7.7,2.1,11.8,4.1,8.4,4.2,8.6,4.2,10.5,1.8,8-9.5,8.1-11.5.3-16.2C536,324.8,519.2,322.4,508,325.5Z" transform="translate(-16.69 -15.1)"/><path class="cls-1" d="M53.5,341c-5.8,1.6-10,4-13.1,7.3-4,4.2-5.4,6.9-5.4,10.6,0,2.4-.6,3.2-2.9,4-3.9,1.4-9.7,7.7-10.5,11.4-.9,4.7-.7,17.9.4,21.8,1.8,6.4,6.7,12.9,11.3,15a20.29,20.29,0,0,0,6.7,2c1.9,0,3.1,1,5,4.7,3.5,6.6,9.5,9.6,19.3,9.6,8.9,0,14.1-1.4,20.4-5.6,5.1-3.4,8.5-8.8,8.7-13.8.1-2.2.9-3.1,4.3-4.8a19.14,19.14,0,0,0,7-6.3c2.6-4,2.8-5,2.8-15,0-7.2-.4-11.1-1.3-12a4.46,4.46,0,0,1-1.2-2.6c0-.7-1.8-3.3-4.1-5.6-3.1-3.4-5.4-4.7-9.9-6-3.3-.9-5.9-2-5.8-2.4.3-1-2.2-5.5-4.2-7.3-3.8-3.7-8.5-5.3-16.5-5.5A54.27,54.27,0,0,0,53.5,341Zm18.9,14.7c3.3,2.5,3.5,4,1.7,9.1-2.2,6-.6,7.4,4.5,3.9,4.4-3,7-3.3,10.1-1.1,7.1,5,8.2,21.9,1.7,26.2-2.3,1.5-3,1.5-7.4.1-2.7-.9-5.1-1.3-5.4-1-1.1,1.1-.6,3.1,1.3,4.9a7.73,7.73,0,0,1,2.2,8.6c-2.1,5.4-12.7,9.3-20.3,7.5s-8.3-3.5-6.4-12.9c1-4.9-.6-5.7-4.9-2.5a12.27,12.27,0,0,1-6.4,2.6c-9,0-13.3-23.2-5.1-27.5,2.5-1.3,3.4-1.3,6.9-.1s4.1,1.3,5.1.1.7-2-.8-4.2c-3.6-5.1-3.7-8.1-.1-11.4a20.4,20.4,0,0,1,6.3-3.9C60,352.7,69.4,353.6,72.4,355.7Z" transform="translate(-16.69 -15.1)"/><path class="cls-1" d="M180.5,345.2c-3.3.3-18.7.4-34.3.3l-28.3-.2-3.6,3.1-3.6,3.1.7,8.4c1.2,15.5,8.3,25.7,22.8,32.9,10.2,5.1,16.3,6.6,34.3,8.7,32.4,3.8,60,4.6,130.5,4.1,100.7-.7,117.2-2.3,142.2-13.9,13-6.1,21.8-18.2,22.5-31,.4-6.7.3-7.3-2.5-10.6l-3-3.5-15.8-.3c-10.6-.2-16.1-.7-16.6-1.5s-1.8-.8-5.3.1c-5.6,1.5-14.5,1.6-14.5.1C406,343.9,192.4,344,180.5,345.2Z" transform="translate(-16.69 -15.1)"/><path class="cls-1" d="M584,357.1a9.68,9.68,0,0,1-3.7,2c-.7,0-1.3,1.2-1.3,2.6,0,2.3-.3,2.5-2.2,1.9a37.67,37.67,0,0,0-6.6-1.2c-3.7-.4-4.4-.2-4.9,1.5a4.09,4.09,0,0,1-1.9,2.6c-1.4.6-2,4.6-.6,4.6.4,0,3.1,2.2,6,4.9,3.4,3.2,5.2,5.7,5.2,7.3,0,4.4,1.4,5.3,5.9,3.8,3.6-1.2,4.3-1.1,7.6.9,4.5,2.6,8.7,2.7,11,.1,1.6-1.8,1.6-2.4.4-7.7-1-4.1-2-6.1-3.5-6.7-2.1-.9-2.1-1,.7-3.4,3.8-3.2,3.8-7.2.1-11S587.3,354.5,584,357.1Z" transform="translate(-16.69 -15.1)"/><path class="cls-1" d="M121.6,407.2c-3.3,2.6-3.5,7.5-.4,11.4,7.1,9,26.8,8.6,26.8-.6,0-2.2-.9-3.6-4.2-6C134.3,405,126.5,403.3,121.6,407.2Z" transform="translate(-16.69 -15.1)"/><path class="cls-1" d="M75,465.87c-4.64.25-7.55,4.35-5.62,7.93C78.48,490.74,100,531,99.11,532.37s-26.43,35.48-38,50.94c-2.76,3.67-.19,8.55,4.88,9.21,25.17,3.27,96.67,8.43,227-12.25,0,0,116.86-21.13,204.47-14.24,5,.39,8.86-3.66,7.35-7.73l-21.64-58.47L519,447.67c2.65-3.86.18-8.83-5-9.82-22-4.27-85.5-9.71-237,17.09Z" transform="translate(-16.69 -15.1)"/><path class="cls-2" d="M158.35,533.37a2.18,2.18,0,0,1-.9.57,3.07,3.07,0,0,0-.74-.52l-2.13.52a2,2,0,0,0-.69-1l-2.44,1h-.69a1.85,1.85,0,0,1-.64-.18,1.79,1.79,0,0,0-.64-.18h-.37v-9.82l-1.51-7a.2.2,0,0,0-.21-.15,2.84,2.84,0,0,1-1.61,1.41L144.69,517h-7.23l-1.41-.67-.83.1a1.43,1.43,0,0,1,.16.31v10.66l-1.15,3.39,1.15,2.87-.42.26-5.27.21-1.24.32a1.48,1.48,0,0,1-.39-.11,1.49,1.49,0,0,0-.34-.1l-2,.52c-.38-.18-.69-.68-.93-1.52a6.55,6.55,0,0,1-.32-1.88V520.1L123.26,517a4.79,4.79,0,0,1,0-1.15H124a.32.32,0,0,1,.34.18c.06.13.1.19.13.19v-3.55l-1.25-6.11-.68-5.22.58-1.31a1.74,1.74,0,0,1,1.35.57v-7.25c0-.11.1-.24.29-.4a.88.88,0,0,1,.5-.23l2.78,3.65,1.79-.73.15.21h.79l2.47-5.22,1.31.16a2.21,2.21,0,0,1,.79,1.46v10.23a7.2,7.2,0,0,1,.36,1.47,2,2,0,0,1-.18.94,1.46,1.46,0,0,0-.18.26V508l.78,1.52,1.08.15a1.24,1.24,0,0,0,1.25-.68,2.25,2.25,0,0,0,.46-1.38,3.25,3.25,0,0,1,.42-1.54h.57c.55,2.19,1.24,3.29,2.07,3.29h2.39l1-.68a1,1,0,0,1,.41-.89l2.39,1.73.93-2.56V494.46a1.82,1.82,0,0,1,.68-.15,1.54,1.54,0,0,1,.58.1l2.57,3.5h.48c.87,0,1.64-1.11,2.31-3.34.21-.7.59-2.07,1.15-4.13a7.05,7.05,0,0,0,1.47.37Z" transform="translate(-16.69 -15.1)"/><path class="cls-2" d="M193.55,520.68q-.63,2-4,6.42v.84l-2.5,4.59-2.67,1.41-.2-.2-2.93.73-7.42.15-2.71-.52a14.81,14.81,0,0,0-1.41-.57,2.16,2.16,0,0,1-1.2-1.36,2,2,0,0,0-.42.36h-.94l-4.39-5.79-1.15-3.66V508.35l1.05-.15,1.36,1.51c2.47-2.29,3.89-3.67,4.28-4.12a8.38,8.38,0,0,0,2.3-5.07,1.06,1.06,0,0,0,.78.37l1,2.66,1.36.26h2.25l4.33.26a3.38,3.38,0,0,0,.84-2.14,5.09,5.09,0,0,0-.16-1.2l1.31-.21a2.49,2.49,0,0,1,.94,1.62l.15,2.09c.31.31.45.47.42.47.2-.24.36-.37.46-.37l1.6-3.44c.66.21,1.16.92,1.5,2.14.14.9.29,1.83.46,2.77l2.17,5.17.31-1.05a1.59,1.59,0,0,0,.39-.18,1.25,1.25,0,0,1,.54-.18l.93.73.52,2.66v4.54Zm-11.8.83v-3.86a6.86,6.86,0,0,0-1.46-4,4.13,4.13,0,0,0-3.34-2h-2.51l-.52,1.09h-1.36l-.73,2v.77l1.41-.84a.14.14,0,0,0,.1,0V522l2,4h.78l.58-3a2.08,2.08,0,0,1,.46-1.51l.63.15,1.57,3.5,1.15-.36Z" transform="translate(-16.69 -15.1)"/><path class="cls-2" d="M216.58,533.84l-.52,2-2.3,1-5.79.89a1.61,1.61,0,0,0-.21-.37l-1.57-.16q-6.74-3.39-7.15-7.2l-2.62-9.4.53-1.31h.62l2.15,1.93v-1.67l-1.05-4.33-1.51-.84a4.83,4.83,0,0,0-.68,0,7.57,7.57,0,0,0-1.62.21v-6l.73-.78h1.57l3.65-1v-6.9l.52-.78,1.88-.47.53-2.92a3.51,3.51,0,0,1,1.25-2.2l1.2.21v4.55l1-1h.63a4.49,4.49,0,0,1,.89,3v2.3a1.49,1.49,0,0,1,.42.83,1.21,1.21,0,0,1-.42.84l.79,1.3h2.36l1-2.19.79.21.9,2.77,1.94,1.09v5.43l-1.09,1.1H212.2l-1.47.47a1,1,0,0,0-.62-.31v2.66l.62-1,1.26.41a.6.6,0,0,0-.11.42,5.4,5.4,0,0,0,.11.89l-1.19,5.17-.69,1.57v2.55L211,529h1.32l1.36-3.91h.85l.52,2.09.63-.21,1,.41a1.62,1.62,0,0,0-.31.89,1,1,0,0,0,.16.5,1.09,1.09,0,0,1,.15.39Z" transform="translate(-16.69 -15.1)"/><path class="cls-2" d="M279.82,523.24q-1.41,5.89-3.86,8.09l-1-.36-1.41,1.56a7.88,7.88,0,0,0-1.35.21,1.64,1.64,0,0,0-1,.84l-4.75.16a7.06,7.06,0,0,1-.73,0,1.82,1.82,0,0,1-.68-.11l-8,.42-.84-.36-.21.2-2.76-.88-5.07.88-.78-.57-1.41-2.46v-7l-1.62-5.9v-3.56l1-.47.32,1.15c.21.53.43.82.68.89l.1-1.88-1.56-8.67,1-3.34v-8.51l-.16-1.31h1l2.62,3.82h1.51l1.72-1.21,2.77.53,2.09-3.14h1.3l3.61,3.29,2.24-2.24,1-.16,3.18,1.2,1.73-3.71.78.21,2.14,6.72V499l2.19,3.41.47-.83h.79l.94,2.92v1.67l-1.62,3.71-2.87,1.78-.16-.16-2,1.83.26.26a9.28,9.28,0,0,0,1-.26c.28,0,.5.22.68.67l.63-.41.88-1.05c.18,0,.63.16,1.36.37l.84,4.54a.29.29,0,0,0,.26.16l.83-1.78.63-.15,1.25,6.16Zm-14.93-16.56-1.78-2-1.3-.52c-.7,1.39-1.38,2.09-2,2.09l-1.78-.73a3.2,3.2,0,0,1-.78.1,2.85,2.85,0,0,1-1.41-.42v5l1.51-1.73h.48l1.3.68,1.78-.42a4.41,4.41,0,0,0,.83.11.93.93,0,0,0,.52-.11l2.09-.78Zm2.4,15L266,518.28h-2.46c-.35,0-.87-.35-1.57-1h-.57l-1.88,1.57-2.82-.52a1.26,1.26,0,0,0-.26.57v5l1.41-1.93.57-.16,1.62,3.14,1.05-1.2,2.61,1.2a2.51,2.51,0,0,1,1.77-.52Z" transform="translate(-16.69 -15.1)"/><path class="cls-2" d="M311,525.69l-.73,3.71.73,2.51v1.67h-8.36v-2.3l-.31-.47-7.62,4.34-2.09-.53a.45.45,0,0,0-.16.32l-4.23-.47-2.3-1.1a4.53,4.53,0,0,1-1.72-2.19c-.11-.28-.47-1.19-1.1-2.72l-.31-1.41v-1.88l-1.26-3.5v-3l-.88-2.08.41-.42a5.59,5.59,0,0,1,1.36.36l.16-1.93c0-.07,0-.22-.05-.47a1.13,1.13,0,0,1,0-.52.89.89,0,0,1,.26-.52v-1.36l-.89-5.43a1,1,0,0,1,.73-.21l.37-.73a.66.66,0,0,0,.37.1c.45,0,1-.38,1.52-1.15l1.79-.2h2.25l2.31-1,.69.37v6.58l.1-.63,1.46.16a6.4,6.4,0,0,1,.06,1.62l-1.62,6.94v5.38l.52,1.52,2.56.52s.13-.09.29-.26a.6.6,0,0,1,.44-.26h1.88l.68-1.21a1.43,1.43,0,0,0,.73.11,3.47,3.47,0,0,0,.68-.16c.52-.45,1-1.63,1.3-3.55l-2.61-6.79a1.16,1.16,0,0,1,.84-1.15l1.57,1.26h.78a1,1,0,0,0,.31-.79L301.7,506l-.52-3.65a3.28,3.28,0,0,1,.79-2.56l2.29,4.34h3.08c.18,0,.3-.28.37-.84a2.18,2.18,0,0,1,.26-1,.54.54,0,0,0-.21-.47l.63-1a2.66,2.66,0,0,0,.42.62,1.42,1.42,0,0,1,.36.68v1.62c0,.87.59,1.9,1.78,3.08Z" transform="translate(-16.69 -15.1)"/><path class="cls-2" d="M335.54,506.48,335,515l-1,.19-2.4-.73-.16.21-2.61-.36a1.87,1.87,0,0,1-1.1.68h-1a3.39,3.39,0,0,0-1.67,2.87,1.09,1.09,0,0,0,.1.62l1.36-.88a5.85,5.85,0,0,1,1.15.65l-2.3,6.49v2.55l-.53,3.79.39,2.15.14,2.07c0-.17-.17.09-.52.78l-1.83-.73-1-.15-2.72-.89-.88.89-2.51-.21-1.26-1.05a.81.81,0,0,0-.15-.57l.57-.37-.78-5.9.52-2.77-1.72-11.17.42-.42,1.56,1.57v-6.74l.47-1.46,1.2.15a.77.77,0,0,0,.63.21,1.32,1.32,0,0,0,.89-.31c0,.1.07.16.21.16a.78.78,0,0,0,.26-.06h.68l2.09-3.08h.62l.52,2.09,2.51.89.16,2.24.73.16a5.55,5.55,0,0,1,2.4-1l.31-1V505L329,504a1.6,1.6,0,0,1,1.15-.37,7.76,7.76,0,0,1,1.41,3.14.4.4,0,0,1,.26.16l.84-.74,2.14-.41A1.91,1.91,0,0,1,335.54,506.48Zm-5.32.62v-.47h-.32v.47Z" transform="translate(-16.69 -15.1)"/><path class="cls-2" d="M366.56,512.79l-.68,3v2.92L364.53,522v2a3,3,0,0,0,1,.32c.24,0,.36.28.36.73v2.14l-.88,5.53a8.29,8.29,0,0,1-3.42,5.15,9.67,9.67,0,0,1-5.88,2.27l-.89.16a3.88,3.88,0,0,1-1-1.41l-1.52,2.61-.73.36-1.25-.52a4.73,4.73,0,0,0-1.36.68l-1.25-.52-1.05.21h-.15l-.89.15-1.88-.88-.21.21-.37-.37c-.17,0-.26.1-.26.31h-.36a3.09,3.09,0,0,1-.58.06c-.14,0-.19,0-.15-.11s.07-.23,0-.26a.56.56,0,0,0-.11.31,3.7,3.7,0,0,1-1.72-.94,2.17,2.17,0,0,1-.89-1.56v-4.5l.11-.67a8.38,8.38,0,0,0,.1-1.26l.52-2.5.79-.53a.76.76,0,0,0,.57.16l1.72,3.81,4.44-.31,1.2-2.45a.86.86,0,0,0,.58-.16l1.62,2.56.94-.32.73-.52a6.53,6.53,0,0,1,1.36-.36l.83-.79v-2l-5.83.31a1.53,1.53,0,0,0-.89,0,3.4,3.4,0,0,1-1,0l-3.18.26-2.45-1-2.92-4-.72.2L336,522.66a.74.74,0,0,0,.42-.73,4.33,4.33,0,0,0-.24-.86,2.21,2.21,0,0,1-.18-.81V507.15l1.15-.2,1.15,1.2c.07-.49.85-1.45,2.35-2.88s2.85-2.35,3.65-2.35c0,0,.08,0,.13.11a.43.43,0,0,0,.34.1,3.23,3.23,0,0,0,1.13-.47c.57-.31.86-.54.86-.68v-5.11l1.51-.53,1.88,5.23,1.36-2.46h.78l3.61,4.34c.07.07.12.1.15.1s.11-.12.11-.26v-1.83q0-.21.36-.57.06-.11.27,0a1.07,1.07,0,0,1,.52.31l1-.36,1.72.52.63-.11.52-3.13.37-.57.78.2c.49.25.73.49.73.73v1.73l1.47,1v2.46a.42.42,0,0,1-.06.21.74.74,0,0,1-.1-.16c0-.07,0-.11.05-.11l1.46,3v5.23a.64.64,0,0,0,.32.49A1,1,0,0,1,366.56,512.79Zm-11.12,6.11-.57-10.55-1.78-.47h-2.92l-.58-.57-1.1,1.41-3.13,6.58,1.62-.89a6.38,6.38,0,0,1,.94,1.67l-.84,2.93v2.35l3.35,1.67h1.51V520.1l.47-1.87.63-.16,1.77,2.3A8.23,8.23,0,0,0,355.44,518.9Z" transform="translate(-16.69 -15.1)"/><path class="cls-2" d="M398.11,525.69l-.74,3.71.74,2.51v1.67h-8.36v-2.3l-.31-.47-7.63,4.34-2.09-.53a.47.47,0,0,0-.15.32l-4.23-.47-2.3-1.1a4.61,4.61,0,0,1-1.73-2.19c-.1-.28-.47-1.19-1.09-2.72l-.31-1.41v-1.88l-1.26-3.5v-3l-.89-2.08.42-.42a5.71,5.71,0,0,1,1.36.36l.16-1.93a4.06,4.06,0,0,0-.06-.47,1.5,1.5,0,0,1,0-.52,1,1,0,0,1,.27-.52v-1.36l-.89-5.43a1,1,0,0,1,.73-.21l.37-.73a.64.64,0,0,0,.37.1c.45,0,1-.38,1.52-1.15l1.78-.2h2.26l2.31-1,.68.37v6.58l.11-.63,1.46.16a7,7,0,0,1,.05,1.62L379,518.17v5.38l.53,1.52,2.55.52s.13-.09.29-.26a.63.63,0,0,1,.45-.26h1.88l.68-1.21a1.42,1.42,0,0,0,.73.11,3.29,3.29,0,0,0,.67-.16c.53-.45,1-1.63,1.31-3.55l-2.61-6.79a1.16,1.16,0,0,1,.83-1.15l1.57,1.26h.79a1,1,0,0,0,.31-.79l-.16-6.79-.52-3.65a3.32,3.32,0,0,1,.78-2.56l2.3,4.34h3.08c.18,0,.3-.28.37-.84a2.05,2.05,0,0,1,.26-1,.54.54,0,0,0-.21-.47l.63-1a2.85,2.85,0,0,0,.41.62,1.38,1.38,0,0,1,.37.68v1.62c0,.87.59,1.9,1.78,3.08Z" transform="translate(-16.69 -15.1)"/><path class="cls-2" d="M431.06,522.56l-.84,1.1a.86.86,0,0,0-.31-.53,1.14,1.14,0,0,0-.26.84l-2.51.89-.21-.16-1.36.37-4.18-1-1.56.65-3.5.5-1.46-.21a1,1,0,0,0-.32-.57l-.31-.37H409.8q1.31,2.46,5.85,5.17l2.09-2.82,1.25,3,1.47-.52.26.16,1.72-.27a1.37,1.37,0,0,1,.52-.1,1.34,1.34,0,0,1,.52.1l1-.26,3.7-2.09c.73.32,1.05,1.1.94,2.35l.53.32,1,3.81-.16,1.15-3.65,1.62h-5.8a2.12,2.12,0,0,0-.76.26,2.22,2.22,0,0,1-.86.26l-2.4-1-.47.67-2.87,1-2.87-.68-2.72-1.57c-1-.35-2.44-1.53-4.39-3.55-2.22-2.33-3.34-4.26-3.34-5.8V512.74l.84-.42,1.67,1.78a14.26,14.26,0,0,1,2.58-3.6,10.84,10.84,0,0,1,3.32-2.82,1.7,1.7,0,0,1,1.25-.37l3.08-.52,1.41-4,1.36.73.94,3.08,1-2.72v-3.65h.63l1.41,4.33,6.74,6.95c.14-.32.17-.51.1-.58l.52-2.19h.84l1,2.66v4.18l1.2,5.54C430.71,521.24,431,521.72,431.06,522.56ZM421,515.85a3.14,3.14,0,0,0-1.41-2.2c-.32-.24-.91-.73-1.78-1.48H415.6l-.31.36-.27-.21-2.4,1.1-2.61,3.5h2.35l1.41-2.66h.42l2.14,3.29a14.75,14.75,0,0,0,1-1.41c.42-.6.77-.93,1.05-1l2.24,1.78C420.87,516.92,421,516.56,421,515.85Z" transform="translate(-16.69 -15.1)"/><path class="cls-2" d="M454.61,506.48l-.53,8.47-1,.19-2.4-.73-.16.21-2.61-.36a1.87,1.87,0,0,1-1.1.68h-1a3.39,3.39,0,0,0-1.67,2.87,1.06,1.06,0,0,0,.11.62l1.36-.88a5.84,5.84,0,0,1,1.14.65l-2.29,6.49v2.55l-.54,3.79.39,2.15.15,2.07c0-.17-.18.09-.53.78l-1.82-.73-1.05-.15-2.71-.89-.89.89-2.51-.21-1.25-1.05a.76.76,0,0,0-.16-.57l.58-.37-.79-5.9.52-2.77-1.72-11.17.42-.42,1.57,1.57v-6.74l.47-1.46,1.2.15a.73.73,0,0,0,.62.21,1.31,1.31,0,0,0,.89-.31c0,.1.07.16.21.16a.73.73,0,0,0,.26-.06h.68l2.09-3.08h.63l.52,2.09,2.51.89.15,2.24.73.16a5.67,5.67,0,0,1,2.41-1l.31-1V505L448,504a1.57,1.57,0,0,1,1.15-.37,8,8,0,0,1,1.41,3.14c.07,0,.15,0,.26.16l.83-.74,2.14-.41A1.88,1.88,0,0,1,454.61,506.48Zm-5.33.62v-.47H449v.47Z" transform="translate(-16.69 -15.1)"/></svg>