<svg id="Capa_1" data-name="Capa 1" xmlns="http://www.w3.org/2000/svg" viewBox="0 0 583.07 580.49"><defs><style>.cls-1{fill:#3faa86;}.cls-2{fill:#252836;}</style></defs><path class="cls-1" d="M262.41,4.5c-1.8,3.8-2.1,6.3-2.1,16.8,0,17.2,1.7,37.4,3.6,42.4,1.2,3.4,2.1,4.3,3.9,4.3,3.1,0,4.1-1.5,5.4-8,1.8-9.2,3.3-45,2.1-50.4-1.5-6.7-3.8-9.5-7.6-9.6C264.91,0,264.31.6,262.41,4.5Z" transform="translate(0 0)"/><path class="cls-1" d="M184.51,19.2c-3.8,3.8.7,15,11.5,28.8.6.8,4,5.1,7.4,9.5,9.5,12.1,13.9,16.5,19.4,19.1,6.6,3.1,9.8,3.1,12-.2,2-3.1,1.5-7.5-1.7-13.7-2.7-5.3-15.6-20-29.6-34-9.6-9.5-11.2-10.7-14.3-10.7C187.31,18,185.21,18.5,184.51,19.2Z" transform="translate(0 0)"/><path class="cls-1" d="M333.21,33.9c-21.6,22.1-29.8,35-27,42.4.9,2.3,1.6,2.7,4.7,2.7a18.34,18.34,0,0,0,7.3-2.1c5.3-3.2,16.4-14.3,23-22.9,15.2-19.9,19.3-27.8,17.2-33.3-.9-2.4-1.6-2.7-5.3-2.7C348.91,18,348.61,18.2,333.21,33.9Z" transform="translate(0 0)"/><path class="cls-1" d="M294.11,29.7c-4,4.6-8.8,19.7-8.8,28,0,6.3,1.9,13.9,4.1,16.4,1.9,2.2,2.2,2.2,4.7.8,3-1.7,7.7-10.4,9.8-18.2s1.9-24.1-.3-26.7S296.21,27.4,294.11,29.7Z" transform="translate(0 0)"/><path class="cls-1" d="M232.91,31.2c-2.3,3.2-2,8.2,1,17C238,60.7,248.21,75,253,75c6.7,0,5.6-14.1-2.5-30.9C244.21,31.1,236.81,25.6,232.91,31.2Z" transform="translate(0 0)"/><path class="cls-1" d="M258.21,101.4c-.3.3-6.5,1-13.9,1.6-20.7,1.7-34.1,4.6-59.5,12.7-26,8.2-44.3,19-61.6,36.5-9.6,9.7-16,18-20.7,27-5.9,11.3-7.2,16.3-7.2,27.7,0,9.4.1,10.1,2.3,11.3,1.7,1,19.2,1.4,74.7,1.8l72.5.6-72.5.2c-55.9.2-73.1.5-75,1.5s-2.6,2.1-2.8,5.7c-.5,7,.8,8,11.3,8.7l8.9.6-3.9,1.4c-5.5,1.9-14.1,10.6-16,16.2-2.9,8.6-1.7,16.6,3.9,24.9,3.5,5.1,7.4,7.6,14.4,9.1,6.3,1.3,289.7,1.5,305.2.2,10.6-.9,15.5-2.8,20.6-8.3,5.3-5.6,6.8-9.5,6.8-17.3,0-10-4.1-17.1-13.2-22.7-3.3-2-5.5-2.3-25.1-3-11.9-.5-22-1-22.6-1.2s11.9-.5,27.6-.5c28.5-.1,28.6-.1,30.7-2.4a8.62,8.62,0,0,0,2.2-5.9c0-5.8-1.4-6-36.5-6.8-26-.5-28-.7-12.5-.8,24.6-.3,45.9-1.9,48.8-3.8,2.1-1.4,2.2-2,2.2-16.2,0-11.2-.4-16.1-1.7-19.8-.9-2.7-1.9-5.1-2.3-5.4a59.34,59.34,0,0,1-4-6.5c-5.9-10.4-26.9-30.2-38.4-36.1a107.05,107.05,0,0,1-9.9-5.6c-2.9-2.1-34.2-13.3-41.2-14.8-2.2-.4-8-1.9-13-3.3C323.21,105.1,260.41,99.2,258.21,101.4Zm104.1,135.3c0,.7-76,.7-180,0-21.7-.1,9.9-.3,70.3-.5S362.31,236.3,362.31,236.7Z" transform="translate(0 0)"/><path class="cls-1" d="M462.31,117.5c0,.8-.9,1.5-2,1.5a1.8,1.8,0,0,0-2,1.57,1.55,1.55,0,0,0,0,.43c0,1.1-.4,2-1,2-1.7,0-1.2,11,.5,11.6,2.3.9,1.8,3.3-1,4.4-2.2.8-2.5,1.6-2.5,5.5,0,2.5.5,4.5,1,4.5s1,.7,1,1.5c0,3.1,3.3,2.8,9.6-.6,5.7-3,6.6-3.3,9.4-2.2,4.5,1.7,6,.8,6-3.8,0-3.4.5-4.2,4.5-7.1,3.8-2.8,4.4-3.8,4.5-6.9,0-4.2-1.4-5.8-5-5.6a30.23,30.23,0,0,1-6.3-.6c-3.3-.7-3.8-.5-4.7,1.5l-.9,2.3-.1-2.5c-.1-3.1-1.6-5-5.9-7.3C463.41,115.6,462.31,115.6,462.31,117.5Z" transform="translate(0 0)"/><path class="cls-1" d="M511.41,152c-9.5,13.4-10.1,14.8-10.1,22.2,0,8,1.7,10.8,6.6,10.8,3.6,0,8.4-2.4,8.4-4.3a4.79,4.79,0,0,1,1.4-2.6c1.7-2,9.6-26.7,9.6-30.2A6.13,6.13,0,0,0,521,142C518.91,142,517.21,143.7,511.41,152Z" transform="translate(0 0)"/><path class="cls-1" d="M3.61,182.2c-6.2,6.7-4.2,21.1,4.3,31.5a29,29,0,0,0,6.4,5.8c3.7,1.9,11.3,1.9,14.9.1,3-1.6,6.1-5.6,6.1-7.9,0-1.6-3.5-4.9-7.3-6.9l-2.7-1.4,8-3.9c4.4-2.1,8-4.4,8-4.9,0-2.5-5.4-11.6-6.9-11.6-.9,0-4.9,1.6-9,3.5S18,190,17.91,190a6,6,0,0,1,.1-2.3,7.34,7.34,0,0,0-1.7-5C13.41,179.1,6.71,178.8,3.61,182.2Z" transform="translate(0 0)"/><path class="cls-1" d="M479.31,183.8c0,1,1.3,5.7,2.9,10.5l2.9,8.6-2.8.6c-3.8.8-4.2,1.6-6.8,11-1.8,6.8-2.2,11.9-2.8,33.5l-.6,25.5-4.4,13.1c-2.4,7.2-4.4,13.8-4.4,14.7,0,2.6,2.7,2,9-1.8,12.7-7.7,26.7-27.3,31.4-43.9,2.7-9.4,5.1-30,4.2-35a16.05,16.05,0,0,0-2.9-6.2,8.72,8.72,0,0,1-1.9-5c.4-2.7-4-6.4-7.7-6.4-2.5,0-2.7-.4-4.3-8.1-2.2-10.4-3.8-12.9-8.3-12.9C480.11,182,479.31,182.4,479.31,183.8Z" transform="translate(0 0)"/><path class="cls-1" d="M54.71,194.5c-.7,1.8.4,8.5,1.4,8.5.4,0,2.7,2.7,5.1,6,5.4,7.3,11.1,12.7,14.6,13.6s6.5-1.9,6.5-6.2c0-2.8-1.4-4.7-10-13.3-8.9-9-10.4-10.1-13.5-10.1C56.51,193,55,193.6,54.71,194.5Z" transform="translate(0 0)"/><path class="cls-1" d="M539.11,196.5c-13.1,3.3-20.8,14.6-20.8,30.6,0,5.8,1.3,8.9,3.9,8.9,3.9,0,11.3-3.4,15.6-7.2,9.1-8,12.6-17.1,10.5-27.2C547,195.4,545.91,194.7,539.11,196.5Z" transform="translate(0 0)"/><path class="cls-1" d="M51.31,246.2c0,10.3,2.1,15.8,7.9,21.1,4.8,4.3,14.1,7.9,19.5,7.5l4.1-.3.3-6.7c.4-8.3-2-14-8.3-20.3-5.5-5.6-11.4-8.5-18.1-9.2l-5.4-.6Z" transform="translate(0 0)"/><path class="cls-1" d="M529.61,262.4c-2.7,2.3-2.8,2.9-2.8,10.8,0,7,.4,9.1,2.8,13.9,5,10.3,9.8,13.9,18.7,13.9,5.5,0,6.5-.3,9.1-2.9,4.1-4.2,4-8.9-.2-11.4a14.27,14.27,0,0,0-4.5-1.7c-3,0-1-1.7,6.6-5.4,4.7-2.2,8-4.4,8-5.3,0-2.4-5.4-11.3-6.8-11.3-.7,0-3.4,1.1-6,2.4s-6.3,3-8.2,3.8l-3.6,1.5.4-3.2c.6-5.4-1.2-7.5-6.3-7.5A10.16,10.16,0,0,0,529.61,262.4Z" transform="translate(0 0)"/><path class="cls-1" d="M25.71,274.5a2.74,2.74,0,0,1-2.4,1.5c-1.3,0-2,1.1-2.5,3.6-.7,3.8.2,11.4,1.3,11.4a5.6,5.6,0,0,1,2.1.9c1.2.8,1,1.6-1.2,4.5-1.5,1.9-2.7,4-2.7,4.6,0,2.3,4.6,9,6.2,9,.9,0,3.7-1.6,6.3-3.5,6.4-5,9-5.2,14.4-1.6,3.3,2.2,4.8,2.7,5.8,1.9s.6-1.9-2.1-4.9c-4-4.8-3.8-7.1,1.1-12.8,2.9-3.4,3.3-4.6,2.8-7.1-.8-3.7-2.6-4.6-9-4.4-7.5.3-7.5.3-7.5,2.1,0,1.2-.6.7-1.6-1.2-2-4-2.3-4.1-6.7-4.9C27.11,273.1,26.11,273.3,25.71,274.5Z" transform="translate(0 0)"/><path class="cls-1" d="M96.81,293.7c-3.6,3.5-3.7,3.7-3.3,9.9.5,8.2,2.8,11.4,9.4,13.2,5,1.4,7.1,2,15.9,5.2a80.07,80.07,0,0,0,12,3,51.27,51.27,0,0,1,8.8,2.2c3.8,1.9,30.6-2.2,34.3-5.3.7-.6,5.1-1.3,9.9-1.5,7-.4,10.3-.1,18.5,2a102.56,102.56,0,0,0,11.9,2.6c1.2,0,2.1.4,2.1.9,0,1.4,9.1,2.4,10.3,1.2.6-.6,5-1.1,10-1.1,6.5,0,9.2-.4,10.3-1.5a6.65,6.65,0,0,1,3.8-1.5,37.06,37.06,0,0,0,8.1-2,35.83,35.83,0,0,1,23.1,0c14.6,5.1,32.7,6.5,44.1,3.4,26.5-7.1,24.9-7.1,48.3-.5a68.24,68.24,0,0,0,35.6-.4c33.9-9.5,35.4-10.4,35.4-20,0-4.7-.4-5.7-3.6-8.9-5.7-5.7-8.6-5.8-24.4-.5-2.5.8-5.4,1.6-15.8,4.5-8.2,2.2-11.7,1.9-24.2-2-10.8-3.4-12.3-3.6-25.1-3.6-11.1,0-14.7.4-19.5,2-17.4,6-25.4,6.4-38.4,1.9-8.6-3-10.8-3.3-23.6-3.7-13.9-.4-14.1-.4-25.8,3.3-14,4.4-17,4.4-32.1-.6-9.5-3.2-10.8-3.4-24.5-3.4-12.5,0-15.4.3-20.7,2.2-9.1,3.3-21.1,5.6-25.2,4.8-2-.4-7.6-2-12.6-3.6s-11-3.6-13.5-4.4a35.64,35.64,0,0,0-10.1-1.5C101.11,290,100.31,290.3,96.81,293.7Z" transform="translate(0 0)"/><path class="cls-1" d="M491.31,310.4a40.3,40.3,0,0,0-27.6,25.2c-1.5,3.9-1.9,7.5-1.9,17.9,0,14.8,1.1,18.1,8.5,25.5,5.4,5.4,8.1,5.9,13,2.5,4-2.8,4.8-4.3,3.1-6.1a39.71,39.71,0,0,1-3.5-5.8l-2.7-5,2.5,2.3c3,2.8,6.1,2.1,7.5-1.7.5-1.5,1-2.1,1-1.5.1,1.6,3.2,5.3,4.4,5.3.5,0,3-2.4,5.5-5.3s8-8.7,12.1-12.9c7.2-7.5,8.6-10.8,4.6-10.8-1.3,0-1.2-.4.5-2.2,2.6-2.9,2.5-3.8-1.1-6.7-2.9-2.2-3.1-2.3-4.9-.6-2.6,2.4-2.5,5,.2,6.9,2.1,1.5,2,1.6-3.3,1.6h-5.5l.4-3.5c.4-3,.1-3.5-2.4-4.1-5.2-1.3-8.2,3-4.6,6.9l2,2.2-3.4,2.2c-2.8,1.8-3.5,1.9-4.5.7-1.6-1.9-4.3-1.8-6.2.4-2.2,2.4-2.1,3.5.3,5.7,1.9,1.7,2.1,1.7,4.1-.1,2.2-1.9,2.2-1.9.9.5-.7,1.4-1,4.4-.8,7.3.5,4.7.5,4.8-1.4,3.1-1.6-1.4-2.4-1.5-5-.5-1.8.6-3.4.9-3.7.6s-.6-3.8-.5-7.7c0-8.8,2.3-13.7,8.9-19.5,5.7-5,13-7.6,19.2-6.9,2.4.2,7.7,2.1,11.8,4.1,8.4,4.2,8.6,4.2,10.5,1.8,8-9.5,8.1-11.5.3-16.2C519.31,309.7,502.51,307.3,491.31,310.4Z" transform="translate(0 0)"/><path class="cls-1" d="M36.81,325.9c-5.8,1.6-10,4-13.1,7.3-4,4.2-5.4,6.9-5.4,10.6,0,2.4-.6,3.2-2.9,4-3.9,1.4-9.7,7.7-10.5,11.4-.9,4.7-.7,17.9.4,21.8,1.8,6.4,6.7,12.9,11.3,15a20.19,20.19,0,0,0,6.7,2c1.9,0,3.1,1,5,4.7,3.5,6.6,9.5,9.6,19.3,9.6,8.9,0,14.1-1.4,20.4-5.6,5.1-3.4,8.5-8.8,8.7-13.8.1-2.2.9-3.1,4.3-4.8a19.1,19.1,0,0,0,7-6.3c2.6-4,2.8-5,2.8-15,0-7.2-.4-11.1-1.3-12a4.45,4.45,0,0,1-1.2-2.6c0-.7-1.8-3.3-4.1-5.6-3.1-3.4-5.4-4.7-9.9-6-3.3-.9-5.9-2-5.8-2.4.3-1-2.2-5.5-4.2-7.3-3.8-3.7-8.5-5.3-16.5-5.5A54,54,0,0,0,36.81,325.9Zm18.9,14.7c3.3,2.5,3.5,4,1.7,9.1-2.2,6-.6,7.4,4.5,3.9,4.4-3,7-3.3,10.1-1.1,7.1,5,8.2,21.9,1.7,26.2-2.3,1.5-3,1.5-7.4.1-2.7-.9-5.1-1.3-5.4-1-1.1,1.1-.6,3.1,1.3,4.9a7.73,7.73,0,0,1,2.2,8.6c-2.1,5.4-12.7,9.3-20.3,7.5s-8.3-3.5-6.4-12.9c1-4.9-.6-5.7-4.9-2.5a12.31,12.31,0,0,1-6.4,2.6c-9,0-13.3-23.2-5.1-27.5,2.5-1.3,3.4-1.3,6.9-.1s4.1,1.3,5.1.1.7-2-.8-4.2c-3.6-5.1-3.7-8.1-.1-11.4a20.34,20.34,0,0,1,6.3-3.9C43.31,337.6,52.71,338.5,55.71,340.6Z" transform="translate(0 0)"/><path class="cls-1" d="M163.81,330.1c-3.3.3-18.7.4-34.3.3l-28.3-.2-3.6,3.1L94,336.4l.7,8.4c1.2,15.5,8.3,25.7,22.8,32.9,10.2,5.1,16.3,6.6,34.3,8.7,32.4,3.8,60,4.6,130.5,4.1,100.7-.7,117.2-2.3,142.2-13.9,13-6.1,21.8-18.2,22.5-31,.4-6.7.3-7.3-2.5-10.6l-3-3.5-15.8-.3c-10.6-.2-16.1-.7-16.6-1.5s-1.8-.8-5.3.1c-5.6,1.5-14.5,1.6-14.5.1C389.31,328.8,175.71,328.9,163.81,330.1Z" transform="translate(0 0)"/><path class="cls-1" d="M567.31,342a9.74,9.74,0,0,1-3.7,2c-.7,0-1.3,1.2-1.3,2.6,0,2.3-.3,2.5-2.2,1.9a37,37,0,0,0-6.6-1.2c-3.7-.4-4.4-.2-4.9,1.5a4.09,4.09,0,0,1-1.9,2.6c-1.4.6-2,4.6-.6,4.6.4,0,3.1,2.2,6,4.9,3.4,3.2,5.2,5.7,5.2,7.3,0,4.4,1.4,5.3,5.9,3.8,3.6-1.2,4.3-1.1,7.6.9,4.5,2.6,8.7,2.7,11,.1,1.6-1.8,1.6-2.4.4-7.7-1-4.1-2-6.1-3.5-6.7-2.1-.9-2.1-1,.7-3.4,3.8-3.2,3.8-7.2.1-11S570.61,339.4,567.31,342Z" transform="translate(0 0)"/><path class="cls-1" d="M104.91,392.1c-3.3,2.6-3.5,7.5-.4,11.4,7.1,9,26.8,8.6,26.8-.6,0-2.2-.9-3.6-4.2-6C117.61,389.9,109.81,388.2,104.91,392.1Z" transform="translate(0 0)"/><path class="cls-1" d="M58.31,450.77c-4.64.25-7.55,4.35-5.62,7.93,9.1,16.94,30.62,57.2,29.73,58.57s-26.43,35.48-38,50.94c-2.76,3.67-.19,8.55,4.88,9.21,25.17,3.27,96.67,8.43,227-12.25,0,0,116.86-21.13,204.47-14.24,5,.39,8.86-3.66,7.35-7.73l-21.64-58.47,35.83-52.16c2.65-3.86.18-8.83-5-9.82-22-4.27-85.5-9.71-237,17.09Z" transform="translate(0 0)"/><path class="cls-2" d="M141.66,518.27a2.2,2.2,0,0,1-.9.57,3.19,3.19,0,0,0-.74-.52l-2.13.52a2,2,0,0,0-.69-1l-2.44,1h-.69a1.8,1.8,0,0,1-.64-.18,1.8,1.8,0,0,0-.64-.18h-.37v-9.82l-1.51-7a.2.2,0,0,0-.21-.15,2.83,2.83,0,0,1-1.61,1.41l-1.09-1h-7.23l-1.41-.67-.83.1a1.3,1.3,0,0,1,.16.31V512.3l-1.15,3.39,1.15,2.87-.42.26L113,519l-1.24.32a1.74,1.74,0,0,1-.39-.11,1.33,1.33,0,0,0-.34-.1l-2,.52c-.38-.18-.69-.68-.93-1.52a6.34,6.34,0,0,1-.32-1.88V505l-1.21-3.1a4.43,4.43,0,0,1,0-1.15h.74a.32.32,0,0,1,.34.18c.06.13.1.19.13.19v-3.55l-1.25-6.11-.68-5.22.58-1.31a1.73,1.73,0,0,1,1.35.57v-7.25c0-.11.1-.24.29-.4a.86.86,0,0,1,.5-.23l2.78,3.65,1.79-.73.15.21h.79l2.47-5.22,1.31.16a2.22,2.22,0,0,1,.79,1.46v10.23a7.51,7.51,0,0,1,.36,1.47,1.91,1.91,0,0,1-.18.94,1.51,1.51,0,0,0-.18.26v2.85l.78,1.52,1.08.15a1.23,1.23,0,0,0,1.25-.68,2.29,2.29,0,0,0,.46-1.38,3.2,3.2,0,0,1,.42-1.54h.57c.55,2.19,1.24,3.29,2.07,3.29h2.39l1-.68a1,1,0,0,1,.41-.89l2.39,1.73.93-2.56v-12.5a2,2,0,0,1,.68-.15,1.65,1.65,0,0,1,.58.1l2.57,3.5h.48c.87,0,1.64-1.11,2.31-3.34.21-.7.59-2.07,1.15-4.13a6.89,6.89,0,0,0,1.47.37Z" transform="translate(0 0)"/><path class="cls-2" d="M176.86,505.58q-.63,2-4,6.42v.84l-2.5,4.59-2.67,1.41-.2-.2-2.93.73-7.42.15-2.71-.52q-.69-.32-1.41-.57a2.16,2.16,0,0,1-1.2-1.36,1.82,1.82,0,0,0-.42.36h-.94l-4.39-5.79L144.92,508V493.25l1.05-.15,1.36,1.51c2.47-2.29,3.89-3.67,4.28-4.12a8.42,8.42,0,0,0,2.3-5.07,1.07,1.07,0,0,0,.78.37l1,2.66,1.36.26h2.25l4.33.26a3.37,3.37,0,0,0,.84-2.14,5.41,5.41,0,0,0-.16-1.2l1.31-.21a2.51,2.51,0,0,1,.94,1.62l.15,2.09c.31.31.45.47.42.47.2-.24.36-.37.46-.37l1.6-3.44c.66.21,1.16.92,1.5,2.14.14.9.29,1.83.46,2.77l2.17,5.17.31-1.05a1.38,1.38,0,0,0,.39-.18,1.28,1.28,0,0,1,.54-.18l.93.73.52,2.66v4.54Zm-11.8.83v-3.86a6.85,6.85,0,0,0-1.46-4,4.14,4.14,0,0,0-3.34-2h-2.51l-.52,1.09h-1.36l-.73,2v.77l1.41-.84h.1v7.33l2,4h.78l.58-3a2.07,2.07,0,0,1,.46-1.51l.63.15,1.57,3.5,1.15-.36Z" transform="translate(0 0)"/><path class="cls-2" d="M199.89,518.74l-.52,2-2.3,1-5.79.89a1.36,1.36,0,0,0-.21-.37l-1.57-.16q-6.74-3.39-7.15-7.2l-2.62-9.4.53-1.31h.62l2.15,1.93v-1.67L182,500.12l-1.51-.84a3.86,3.86,0,0,0-.68,0,7.34,7.34,0,0,0-1.62.21v-6l.73-.78h1.57l3.65-1v-6.9l.52-.78,1.88-.47.53-2.92a3.5,3.5,0,0,1,1.25-2.2l1.2.21v4.55l1-1h.63a4.49,4.49,0,0,1,.89,3v2.3a1.54,1.54,0,0,1,.42.83,1.18,1.18,0,0,1-.42.84l.79,1.3h2.36l1-2.19.79.21.9,2.77,1.94,1.09v5.43l-1.09,1.1h-3.2l-1.47.47a1,1,0,0,0-.62-.31v2.66l.62-1,1.26.41a.57.57,0,0,0-.11.42,5.28,5.28,0,0,0,.11.89l-1.19,5.17-.69,1.57v2.55l.89,2.19h1.32L197,510h.85l.52,2.09.63-.21,1,.41a1.6,1.6,0,0,0-.31.89,1,1,0,0,0,.16.5,1.09,1.09,0,0,1,.15.39Z" transform="translate(0 0)"/><path class="cls-2" d="M263.13,508.14c-.94,3.93-2.23,6.62-3.86,8.09l-1-.36-1.41,1.56a7.59,7.59,0,0,0-1.35.21,1.61,1.61,0,0,0-1,.84l-4.75.16H249a1.77,1.77,0,0,1-.68-.11l-8,.42-.84-.36-.21.2-2.76-.88-5.07.88-.78-.57-1.41-2.46v-7l-1.62-5.9V499.3l1-.47L229,500c.21.53.43.82.68.89l.1-1.88-1.56-8.67,1-3.34v-8.51l-.16-1.31h1l2.62,3.82h1.51l1.72-1.21,2.77.53,2.09-3.14h1.3l3.61,3.29,2.24-2.24,1-.16,3.18,1.2,1.73-3.71.78.21,2.14,6.72v1.43l2.19,3.41.47-.83h.79l.94,2.92v1.67l-1.62,3.71-2.87,1.78-.16-.16-2,1.83.26.26a8.64,8.64,0,0,0,1-.26c.28,0,.5.22.68.67l.63-.41.88-1.05a10.28,10.28,0,0,1,1.36.37l.84,4.54a.29.29,0,0,0,.26.16l.83-1.78.63-.15,1.25,6.16ZM248.2,491.58l-1.78-2-1.3-.52c-.7,1.39-1.38,2.09-2,2.09l-1.78-.73a2.93,2.93,0,0,1-.78.1,2.83,2.83,0,0,1-1.41-.42v5l1.51-1.73h.48l1.3.68,1.78-.42a4.6,4.6,0,0,0,.83.11.94.94,0,0,0,.52-.11l2.09-.78Zm2.4,15-1.29-3.4h-2.46c-.35,0-.87-.35-1.57-1h-.57l-1.88,1.57-2.82-.52a1.35,1.35,0,0,0-.26.57v5l1.41-1.93.57-.16,1.62,3.14,1.05-1.2,2.61,1.2a2.51,2.51,0,0,1,1.77-.52Z" transform="translate(0 0)"/><path class="cls-2" d="M294.31,510.59l-.73,3.71.73,2.51v1.67H286v-2.3l-.31-.47L278,520.05l-2.09-.53a.45.45,0,0,0-.16.32l-4.23-.47-2.3-1.1a4.53,4.53,0,0,1-1.72-2.19c-.11-.28-.47-1.19-1.1-2.72l-.31-1.41v-1.88l-1.26-3.5v-3l-.88-2.08.41-.42a5.36,5.36,0,0,1,1.36.36l.16-1.93a2.23,2.23,0,0,0,0-.47,1.14,1.14,0,0,1,0-.52.92.92,0,0,1,.26-.52v-1.36l-.89-5.43A1,1,0,0,1,266,491l.37-.73a.69.69,0,0,0,.37.1c.45,0,1-.38,1.52-1.15L270,489h2.25l2.31-1,.69.37V495l.1-.63,1.46.16a6.29,6.29,0,0,1,.06,1.62l-1.62,6.94v5.38l.52,1.52,2.56.52a2.05,2.05,0,0,0,.29-.26.6.6,0,0,1,.44-.26h1.88l.68-1.21a1.41,1.41,0,0,0,.73.11,3.2,3.2,0,0,0,.68-.16c.52-.45,1-1.63,1.3-3.55l-2.61-6.79a1.16,1.16,0,0,1,.84-1.15l1.57,1.26h.78a1,1,0,0,0,.31-.79L285,490.9l-.52-3.65a3.27,3.27,0,0,1,.79-2.56l2.29,4.34h3.08c.18,0,.3-.28.37-.84a2.19,2.19,0,0,1,.26-1,.56.56,0,0,0-.21-.47l.63-1a2.61,2.61,0,0,0,.42.62,1.45,1.45,0,0,1,.36.68v1.62c0,.87.59,1.9,1.78,3.08Z" transform="translate(0 0)"/><path class="cls-2" d="M318.85,491.38l-.54,8.52-1,.19-2.4-.73-.16.21-2.61-.36a1.85,1.85,0,0,1-1.1.68h-1a3.4,3.4,0,0,0-1.67,2.87,1.1,1.1,0,0,0,.1.62l1.36-.88a5.67,5.67,0,0,1,1.15.65l-2.3,6.49v2.55l-.53,3.79.39,2.15.14,2.07c0-.17-.17.09-.52.78l-1.83-.73-1-.15-2.72-.89-.88.89-2.51-.21-1.26-1a.82.82,0,0,0-.15-.57l.57-.37-.78-5.9.52-2.77-1.72-11.17.42-.42,1.56,1.57v-6.74l.47-1.46,1.2.15a.78.78,0,0,0,.63.21,1.33,1.33,0,0,0,.89-.31c0,.1.07.16.21.16a.76.76,0,0,0,.26-.06h.68l2.09-3.08h.62l.52,2.09,2.51.89.16,2.24.73.16a5.54,5.54,0,0,1,2.4-1l.31-1V489.9l.25-1a1.6,1.6,0,0,1,1.15-.37,7.77,7.77,0,0,1,1.41,3.14.4.4,0,0,1,.26.16l.84-.74,2.14-.41A1.85,1.85,0,0,1,318.85,491.38Zm-5.32.62v-.47h-.32V492Z" transform="translate(0 0)"/><path class="cls-2" d="M349.87,497.69l-.68,3v2.92l-1.35,3.29v2a3.16,3.16,0,0,0,1,.32c.24,0,.36.28.36.73v2.14l-.88,5.53a8.29,8.29,0,0,1-3.42,5.15A9.68,9.68,0,0,1,339,525l-.89.16a3.79,3.79,0,0,1-1-1.41l-1.52,2.61-.73.36-1.25-.52a4.57,4.57,0,0,0-1.36.68L331,526.4l-1,.21h-.15l-.89.15-1.88-.88-.21.21-.37-.37c-.17,0-.26.1-.26.31h-.36a2.86,2.86,0,0,1-.58.06c-.14,0-.19,0-.15-.11s.07-.23,0-.26a.51.51,0,0,0-.11.31,3.69,3.69,0,0,1-1.72-.94,2.19,2.19,0,0,1-.89-1.56V519l.11-.67a8.91,8.91,0,0,0,.1-1.26l.52-2.5.79-.53a.74.74,0,0,0,.57.16l1.72,3.81,4.44-.31,1.2-2.45a.86.86,0,0,0,.58-.16l1.62,2.56.94-.32.73-.52a6.5,6.5,0,0,1,1.36-.36l.83-.79v-2l-5.83.31a1.5,1.5,0,0,0-.89,0,3.35,3.35,0,0,1-1,0l-3.18.26-2.45-1-2.92-4-.72.2-1.61-1.9a.73.73,0,0,0,.42-.73,4.4,4.4,0,0,0-.24-.86,2.27,2.27,0,0,1-.18-.81V492.05l1.15-.2,1.15,1.2c.07-.49.85-1.45,2.35-2.88s2.85-2.35,3.65-2.35c0,0,.08,0,.13.11a.42.42,0,0,0,.34.1,3.12,3.12,0,0,0,1.13-.47c.57-.31.86-.54.86-.68v-5.11l1.51-.53,1.88,5.23,1.36-2.46h.78l3.61,4.34c.07.07.12.1.15.1s.11-.12.11-.26v-1.83q0-.21.36-.57.06-.1.27,0a1.07,1.07,0,0,1,.52.31l1-.36,1.72.52.63-.11.52-3.13.37-.57.78.2c.49.25.73.49.73.73v1.73l1.47,1v2.46a.39.39,0,0,1-.06.21.86.86,0,0,1-.1-.16c0-.07,0-.11.05-.11l1.46,3v5.23a.62.62,0,0,0,.32.49A1,1,0,0,1,349.87,497.69Zm-11.12,6.11-.57-10.55-1.78-.47h-2.92l-.58-.57-1.1,1.41-3.13,6.58,1.62-.89a6.4,6.4,0,0,1,.94,1.67l-.84,2.93v2.35l3.35,1.67h1.51V505l.47-1.87.63-.16,1.77,2.3a7.94,7.94,0,0,0,.63-1.47Z" transform="translate(0 0)"/><path class="cls-2" d="M381.42,510.59l-.74,3.71.74,2.51v1.67h-8.36v-2.3l-.31-.47-7.63,4.34-2.09-.53a.48.48,0,0,0-.15.32l-4.23-.47-2.3-1.1a4.61,4.61,0,0,1-1.73-2.19c-.1-.28-.47-1.19-1.09-2.72l-.31-1.41v-1.88l-1.26-3.5v-3l-.89-2.08.42-.42a5.36,5.36,0,0,1,1.36.36l.16-1.93A3.78,3.78,0,0,0,353,499a1.51,1.51,0,0,1,0-.52,1,1,0,0,1,.27-.52v-1.36l-.89-5.43a1,1,0,0,1,.73-.21l.37-.73a.61.61,0,0,0,.37.1c.45,0,1-.38,1.52-1.15l1.78-.2h2.26l2.31-1,.68.37V495l.11-.63,1.46.16a6.76,6.76,0,0,1,.05,1.62l-1.66,7v5.38l.53,1.52,2.55.52a2.05,2.05,0,0,0,.29-.26.64.64,0,0,1,.45-.26H368l.68-1.21a1.41,1.41,0,0,0,.73.11,3.11,3.11,0,0,0,.67-.16c.53-.45,1-1.63,1.31-3.55l-2.61-6.79a1.15,1.15,0,0,1,.83-1.15l1.57,1.26H372a1,1,0,0,0,.31-.79l-.16-6.79-.52-3.65a3.32,3.32,0,0,1,.78-2.56l2.3,4.34h3.08c.18,0,.3-.28.37-.84a2.07,2.07,0,0,1,.26-1,.56.56,0,0,0-.21-.47l.63-1a3.17,3.17,0,0,0,.41.62,1.38,1.38,0,0,1,.37.68v1.62c0,.87.59,1.9,1.78,3.08Z" transform="translate(0 0)"/><path class="cls-2" d="M414.37,507.46l-.84,1.1a.81.81,0,0,0-.31-.53,1.12,1.12,0,0,0-.26.84l-2.51.89-.21-.16-1.36.37-4.18-1-1.56.65-3.5.5-1.46-.21a1,1,0,0,0-.32-.57l-.31-.37h-4.44q1.31,2.46,5.85,5.17l2.09-2.82,1.25,3,1.47-.52.26.16,1.72-.27a1.34,1.34,0,0,1,.52-.1,1.3,1.3,0,0,1,.52.1l1-.26,3.7-2.09c.73.32,1.05,1.1.94,2.35l.53.32,1,3.81L413.8,519l-3.65,1.62h-5.8a2.21,2.21,0,0,0-.76.26,2.38,2.38,0,0,1-.86.26l-2.4-1-.47.67-2.87,1-2.87-.68-2.72-1.57c-1-.35-2.44-1.53-4.39-3.55-2.22-2.33-3.34-4.26-3.34-5.8V497.64l.84-.42,1.67,1.78a14.36,14.36,0,0,1,2.58-3.6,10.87,10.87,0,0,1,3.32-2.82,1.71,1.71,0,0,1,1.25-.37l3.08-.52,1.41-4,1.36.73.94,3.08,1-2.72v-3.65h.63l1.41,4.33,6.74,7c.14-.32.17-.51.1-.58l.52-2.19h.84l1,2.66v4.18l1.2,5.54C414,506.14,414.31,506.62,414.37,507.46Zm-10.06-6.71a3.14,3.14,0,0,0-1.41-2.2c-.32-.24-.91-.73-1.78-1.48h-2.21l-.31.36-.27-.21-2.4,1.1-2.61,3.5h2.35l1.41-2.66h.42l2.14,3.29a15.59,15.59,0,0,0,1-1.41c.42-.6.77-.93,1.05-1l2.24,1.78C404.18,501.82,404.31,501.46,404.31,500.75Z" transform="translate(0 0)"/><path class="cls-2" d="M437.92,491.38l-.53,8.47-1,.19-2.4-.73-.16.21-2.61-.36a1.85,1.85,0,0,1-1.1.68h-1a3.4,3.4,0,0,0-1.67,2.87,1,1,0,0,0,.11.62l1.36-.88a5.6,5.6,0,0,1,1.14.65l-2.29,6.49v2.55l-.54,3.79.39,2.15.15,2.07c0-.17-.18.09-.53.78l-1.82-.73-1.05-.15-2.71-.89-.89.89-2.51-.21L417,518.79a.74.74,0,0,0-.16-.57l.58-.37-.79-5.9.52-2.77L415.44,498l.42-.42,1.57,1.57v-6.74l.47-1.46,1.2.15a.74.74,0,0,0,.62.21,1.33,1.33,0,0,0,.89-.31c0,.1.07.16.21.16a.58.58,0,0,0,.26-.06h.68l2.09-3.08h.63l.52,2.09,2.51.89.15,2.24.73.16a5.58,5.58,0,0,1,2.41-1l.31-1V489.9l.2-1a1.6,1.6,0,0,1,1.15-.37,8,8,0,0,1,1.41,3.14c.07,0,.15,0,.26.16l.83-.74,2.14-.41A1.86,1.86,0,0,1,437.92,491.38Zm-5.33.62v-.47h-.28V492Z" transform="translate(0 0)"/></svg>